<svg width="87" height="35" viewBox="0 0 87 35" fill="none" xmlns="http://www.w3.org/2000/svg">
<path d="M8.376 24.216C7.01067 24.216 5.74133 23.9493 4.568 23.416C3.39467 22.8827 2.424 22.0507 1.656 20.92C0.888 19.768 0.408 18.2853 0.216 16.472C0.194667 16.2373 0.173333 16.0027 0.152 15.768C0.152 15.5333 0.152 15.3093 0.152 15.096C0.152 13.6667 0.365333 12.248 0.792 10.84C1.24 9.41067 1.85867 8.06667 2.648 6.808C3.43733 5.54933 4.376 4.42933 5.464 3.448C6.552 2.46667 7.74667 1.69867 9.048 1.144C10.3707 0.567999 11.768 0.279999 13.24 0.279999H13.72C14.488 0.301332 15.2027 0.439999 15.864 0.695999C16.5467 0.951998 17.0907 1.35733 17.496 1.912C17.9227 2.44533 18.136 3.18133 18.136 4.12C18.136 5.16533 17.8267 6.18933 17.208 7.192C16.5893 8.17333 15.768 9.06933 14.744 9.88C13.72 10.6907 12.5893 11.3413 11.352 11.832C10.1147 12.3013 8.86667 12.536 7.608 12.536C7.52267 12.536 7.43733 12.536 7.352 12.536C7.26667 12.5147 7.17067 12.504 7.064 12.504C6.78667 12.4827 6.584 12.376 6.456 12.184C6.34933 11.992 6.296 11.832 6.296 11.704C7.64 11.704 8.96267 11.4907 10.264 11.064C11.5867 10.6373 12.7707 9.98667 13.816 9.112C14.8827 8.216 15.704 7.07467 16.28 5.688C16.5787 4.96267 16.728 4.30133 16.728 3.704C16.728 3.08533 16.536 2.57333 16.152 2.168C15.7893 1.74133 15.16 1.50667 14.264 1.464H14.04C13.1867 1.464 12.2587 1.70933 11.256 2.2C10.2533 2.66933 9.26133 3.34133 8.28 4.216C7.29867 5.09067 6.40267 6.12533 5.592 7.32C4.80267 8.51467 4.16267 9.848 3.672 11.32C3.18133 12.7707 2.936 14.3173 2.936 15.96V16.248C2.936 17.9333 3.192 19.2773 3.704 20.28C4.23733 21.2613 4.94133 21.9653 5.816 22.392C6.712 22.8187 7.68267 23.032 8.728 23.032C8.89867 23.032 9.05867 23.032 9.208 23.032C9.37867 23.032 9.53867 23.0213 9.688 23C10.7547 22.8933 11.8213 22.5733 12.888 22.04C13.9547 21.4853 14.9467 20.8027 15.864 19.992C16.7813 19.1813 17.5387 18.296 18.136 17.336C18.7547 16.376 19.128 15.4373 19.256 14.52C19.2773 14.4133 19.3307 14.36 19.416 14.36C19.5013 14.36 19.5867 14.392 19.672 14.456C19.7573 14.52 19.8 14.5947 19.8 14.68V14.712C19.8 15.672 19.5973 16.5573 19.192 17.368C18.808 18.1787 18.36 18.9253 17.848 19.608C16.888 20.888 15.6507 21.9227 14.136 22.712C12.6427 23.5013 11.1067 23.9813 9.528 24.152C9.336 24.1733 9.144 24.184 8.952 24.184C8.76 24.2053 8.568 24.216 8.376 24.216ZM23.5268 6.808C23.1214 6.808 22.7588 6.65867 22.4388 6.36C22.1401 6.06133 21.9908 5.69867 21.9908 5.272C21.9908 4.84533 22.1401 4.48267 22.4388 4.184C22.7588 3.88533 23.1214 3.736 23.5268 3.736C23.9534 3.736 24.3161 3.88533 24.6148 4.184C24.9134 4.48267 25.0628 4.84533 25.0628 5.272C25.0628 5.69867 24.9134 6.06133 24.6148 6.36C24.3161 6.65867 23.9534 6.808 23.5268 6.808ZM23.3028 23.16C22.5348 23.16 21.9268 22.84 21.4788 22.2C21.0521 21.5387 20.7428 20.7067 20.5508 19.704C20.3801 18.68 20.2948 17.6133 20.2948 16.504C20.2948 15.5867 20.3374 14.7013 20.4228 13.848C20.5294 12.9733 20.6468 12.216 20.7747 11.576C20.9241 10.9147 21.0628 10.4453 21.1908 10.168C21.3188 9.912 21.5214 9.67733 21.7988 9.464C22.0974 9.22933 22.4921 9.112 22.9828 9.112C23.2601 9.112 23.5374 9.144 23.8148 9.208C23.6014 9.95467 23.3454 10.9893 23.0468 12.312C22.7481 13.6347 22.5988 15.096 22.5988 16.696C22.5988 17.2507 22.6094 17.848 22.6308 18.488C22.6521 19.1067 22.7054 19.6933 22.7908 20.248C22.8761 20.7813 23.0041 21.2187 23.1748 21.56C23.3668 21.9013 23.6121 22.072 23.9108 22.072H23.9427C24.1134 22.072 24.2948 21.9867 24.4868 21.816C24.7001 21.6453 24.9241 21.3253 25.1588 20.856C25.4788 20.2373 25.7774 19.4373 26.0548 18.456C26.0974 18.264 26.1828 18.168 26.3108 18.168C26.4174 18.168 26.4708 18.296 26.4708 18.552V18.68C26.4281 19.2347 26.2788 19.864 26.0228 20.568C25.7668 21.272 25.4041 21.88 24.9348 22.392C24.4868 22.904 23.9428 23.16 23.3028 23.16ZM35.138 23.16C34.4767 23.16 33.9433 22.9573 33.538 22.552C33.1327 22.1253 32.8127 21.592 32.578 20.952C32.3647 20.2907 32.2153 19.6293 32.13 18.968C32.0447 18.2853 32.002 17.688 32.002 17.176C31.746 18.136 31.4153 19.0747 31.01 19.992C30.626 20.9093 30.1993 21.6667 29.73 22.264C29.2607 22.84 28.7487 23.128 28.194 23.128H28.162C27.65 23.128 27.2233 22.8933 26.882 22.424C26.5407 21.9333 26.2847 21.2933 26.114 20.504C25.9433 19.7147 25.858 18.8613 25.858 17.944V17.624C25.858 16.7707 25.9327 15.832 26.082 14.808C26.2313 13.7627 26.498 12.7707 26.882 11.832C27.266 10.8933 27.7887 10.1253 28.45 9.528C29.1327 8.90933 29.9967 8.6 31.042 8.6C31.4473 8.6 31.81 8.696 32.13 8.888C32.4713 9.05867 32.7167 9.31467 32.866 9.656C33.0153 9.48533 33.218 9.34667 33.474 9.24C33.73 9.13333 34.0393 9.08 34.402 9.08C34.53 9.08 34.6687 9.09067 34.818 9.112C34.9887 9.13333 35.1593 9.16533 35.33 9.208C35.202 9.69867 35.0527 10.3707 34.882 11.224C34.7113 12.0773 34.562 13.016 34.434 14.04C34.3273 15.0427 34.274 16.024 34.274 16.984V17.112C34.274 17.5173 34.2953 17.9973 34.338 18.552C34.3807 19.1067 34.4553 19.6507 34.562 20.184C34.6687 20.7173 34.818 21.1653 35.01 21.528C35.202 21.8907 35.4473 22.072 35.746 22.072H35.778C35.9487 22.072 36.13 21.9867 36.322 21.816C36.5353 21.6453 36.7593 21.3253 36.994 20.856C37.314 20.2373 37.6127 19.4373 37.89 18.456C37.9327 18.264 38.018 18.168 38.146 18.168C38.2527 18.168 38.306 18.296 38.306 18.552V18.68C38.2633 19.2347 38.114 19.864 37.858 20.568C37.602 21.272 37.2393 21.88 36.77 22.392C36.322 22.904 35.778 23.16 35.138 23.16ZM29.282 20.504C29.6233 20.504 29.9327 20.2587 30.21 19.768C30.5087 19.2773 30.7753 18.68 31.01 17.976C31.2447 17.272 31.4473 16.5893 31.618 15.928C31.874 14.9467 32.0447 13.9547 32.13 12.952C32.2153 11.928 32.3967 10.9253 32.674 9.944C32.418 9.66667 32.13 9.528 31.81 9.528C31.3407 9.528 30.8607 9.76267 30.37 10.232C29.8793 10.7013 29.4953 11.2347 29.218 11.832C28.8767 12.5787 28.6207 13.4533 28.45 14.456C28.3007 15.4587 28.226 16.4187 28.226 17.336C28.226 17.5707 28.226 17.8053 28.226 18.04C28.2473 18.2747 28.2687 18.4987 28.29 18.712C28.3327 19.352 28.45 19.8107 28.642 20.088C28.8553 20.3653 29.0687 20.504 29.282 20.504ZM37.0617 34.008C36.3151 34.008 35.7924 33.6453 35.4937 32.92C35.1737 32.1947 35.0137 31.2987 35.0137 30.232C35.0137 29.784 35.0351 29.304 35.0777 28.792C35.1204 28.3013 35.1844 27.8107 35.2697 27.32C35.3764 26.6373 35.5257 25.9653 35.7177 25.304C35.9097 24.6427 36.1124 24.0133 36.3257 23.416C36.6244 22.5627 36.9551 21.7627 37.3178 21.016C37.7018 20.248 37.8938 19.4053 37.8938 18.488V18.36C37.8938 17.1013 37.8404 15.928 37.7338 14.84C37.6484 13.752 37.5311 12.8133 37.3818 12.024C37.2538 11.2347 37.1258 10.6587 36.9977 10.296C37.4244 10.168 37.7871 10.0187 38.0858 9.848C38.3844 9.67733 38.6618 9.58133 38.9178 9.56H39.0778C39.4831 9.56 39.7391 9.77333 39.8458 10.2C39.9524 10.6053 40.0164 11.096 40.0378 11.672C40.0591 12.056 40.0698 12.5573 40.0698 13.176C40.0698 13.7947 40.0804 14.4773 40.1018 15.224C40.4004 14.1573 40.7524 13.1227 41.1578 12.12C41.5631 11.1173 42.0111 10.296 42.5018 9.656C42.9924 8.99467 43.4938 8.664 44.0058 8.664C44.6458 8.664 45.1364 8.888 45.4778 9.336C45.8404 9.784 46.0964 10.3493 46.2458 11.032C46.4164 11.6933 46.5124 12.3653 46.5338 13.048C46.5764 13.7093 46.5978 14.264 46.5978 14.712C46.5978 15.8213 46.4484 16.984 46.1498 18.2C45.8724 19.416 45.4138 20.4507 44.7738 21.304H44.9978C45.7658 21.304 46.5231 20.952 47.2698 20.248C48.0378 19.5227 48.6884 18.4347 49.2218 16.984C49.3071 16.7707 49.4031 16.664 49.5098 16.664C49.6591 16.664 49.7338 16.7813 49.7338 17.016C49.7338 17.1013 49.7231 17.1653 49.7018 17.208C49.1258 18.872 48.4111 20.0773 47.5578 20.824C46.7258 21.5707 45.9044 21.944 45.0938 21.944C44.9658 21.944 44.8378 21.9333 44.7098 21.912C44.5818 21.8693 44.4538 21.8373 44.3258 21.816C43.9844 22.1787 43.5898 22.4667 43.1418 22.68C42.6938 22.8933 42.1924 23 41.6378 23C41.0191 23 40.5498 22.872 40.2298 22.616V24.024C40.2298 24.6853 40.2298 25.2827 40.2298 25.816C40.2298 26.3707 40.2191 26.8187 40.1978 27.16C40.1338 28.504 40.0164 29.6027 39.8458 30.456C39.6324 31.5013 39.3124 32.3547 38.8858 33.016C38.4591 33.6773 37.8831 34.008 37.1578 34.008H37.0617ZM41.1578 22.136C41.4991 22.136 41.8084 22.0293 42.0858 21.816C42.5764 21.432 42.9711 20.8133 43.2698 19.96C43.5898 19.0853 43.8138 18.2213 43.9418 17.368C44.0058 17.0053 44.0484 16.568 44.0698 16.056C44.1124 15.544 44.1338 15.0213 44.1338 14.488C44.1338 13.5707 44.0591 12.7493 43.9098 12.024C43.7604 11.2773 43.4724 10.904 43.0458 10.904C42.7898 10.904 42.5231 11.128 42.2458 11.576C41.9898 12.024 41.7338 12.6107 41.4778 13.336C41.2218 14.0613 40.9764 14.84 40.7418 15.672C40.5284 16.4827 40.3364 17.2613 40.1658 18.008C40.1871 18.6267 40.1978 19.2453 40.1978 19.864C40.1978 20.4827 40.1978 21.1013 40.1978 21.72C40.4751 21.9973 40.7951 22.136 41.1578 22.136ZM36.9337 32.984C37.0617 32.984 37.1898 32.888 37.3178 32.696C37.4671 32.5253 37.5951 32.2373 37.7018 31.832C37.8511 31.2773 37.9471 30.5627 37.9898 29.688C38.0538 28.8133 38.0858 27.896 38.0858 26.936C38.0858 25.8907 38.0644 24.8667 38.0218 23.864C37.9791 22.8827 37.9364 22.0613 37.8938 21.4C37.7018 21.848 37.4884 22.3813 37.2538 23C37.0191 23.6187 36.8164 24.2693 36.6457 24.952C36.4324 25.72 36.2617 26.4987 36.1337 27.288C35.9844 28.0987 35.9097 28.9093 35.9097 29.72C35.9097 30.4027 35.9737 31.0853 36.1017 31.768C36.1657 32.0667 36.2831 32.344 36.4537 32.6C36.6031 32.856 36.7631 32.984 36.9337 32.984ZM52.9653 23.48C51.9839 23.48 51.1839 23.256 50.5653 22.808C49.9466 22.3387 49.4773 21.7413 49.1573 21.016C48.8586 20.2693 48.6773 19.4693 48.6133 18.616C48.5919 18.4453 48.5813 18.2853 48.5813 18.136C48.5813 17.9653 48.5813 17.7947 48.5813 17.624C48.5813 16.7493 48.6666 15.8213 48.8372 14.84C49.0293 13.8373 49.3386 12.8987 49.7653 12.024C50.1919 11.1493 50.7466 10.4347 51.4293 9.88C52.1333 9.32533 52.9973 9.048 54.0213 9.048C54.6613 9.048 55.1733 9.29333 55.5573 9.784C55.9626 10.2533 56.1653 10.7973 56.1653 11.416C56.1653 12.0773 56.0586 12.568 55.8453 12.888C55.6319 13.1867 55.3759 13.336 55.0773 13.336C54.5653 13.336 54.3093 12.792 54.3093 11.704C54.3093 11.2773 54.2453 10.8827 54.1173 10.52C53.9893 10.1573 53.7439 9.976 53.3813 9.976C52.9759 9.976 52.6346 10.1787 52.3573 10.584C52.1013 10.968 51.8879 11.4693 51.7173 12.088C51.5466 12.6853 51.4079 13.3253 51.3013 14.008C51.2159 14.6693 51.1519 15.2987 51.1093 15.896C51.0879 16.472 51.0773 16.92 51.0773 17.24V17.368C51.0773 18.2427 51.1519 19.064 51.3013 19.832C51.4506 20.6 51.7279 21.2187 52.1333 21.688C52.5386 22.1573 53.1039 22.392 53.8293 22.392C54.5333 22.392 55.1199 22.2 55.5893 21.816C56.0586 21.4107 56.4319 20.92 56.7093 20.344C57.0079 19.7467 57.2319 19.1387 57.3813 18.52C57.5519 17.9013 57.6799 17.3787 57.7653 16.952C57.8293 16.696 57.9146 16.568 58.0213 16.568C58.1706 16.568 58.2453 16.7493 58.2453 17.112C58.2453 17.176 58.2346 17.2613 58.2133 17.368C58.2133 17.4533 58.2026 17.5493 58.1813 17.656C57.9679 18.7013 57.6906 19.672 57.3493 20.568C57.0079 21.4427 56.4959 22.1467 55.8133 22.68C55.1306 23.2133 54.1813 23.48 52.9653 23.48ZM60.433 6.808C60.0277 6.808 59.665 6.65867 59.345 6.36C59.0463 6.06133 58.897 5.69867 58.897 5.272C58.897 4.84533 59.0463 4.48267 59.345 4.184C59.665 3.88533 60.0277 3.736 60.433 3.736C60.8597 3.736 61.2223 3.88533 61.521 4.184C61.8197 4.48267 61.969 4.84533 61.969 5.272C61.969 5.69867 61.8197 6.06133 61.521 6.36C61.2223 6.65867 60.8597 6.808 60.433 6.808ZM60.209 23.16C59.441 23.16 58.833 22.84 58.385 22.2C57.9583 21.5387 57.649 20.7067 57.457 19.704C57.2863 18.68 57.201 17.6133 57.201 16.504C57.201 15.5867 57.2437 14.7013 57.329 13.848C57.4357 12.9733 57.553 12.216 57.681 11.576C57.8303 10.9147 57.969 10.4453 58.097 10.168C58.225 9.912 58.4277 9.67733 58.705 9.464C59.0037 9.22933 59.3983 9.112 59.889 9.112C60.1663 9.112 60.4437 9.144 60.721 9.208C60.5077 9.95467 60.2517 10.9893 59.953 12.312C59.6543 13.6347 59.505 15.096 59.505 16.696C59.505 17.2507 59.5157 17.848 59.537 18.488C59.5583 19.1067 59.6117 19.6933 59.697 20.248C59.7823 20.7813 59.9103 21.2187 60.081 21.56C60.273 21.9013 60.5183 22.072 60.817 22.072H60.849C61.0197 22.072 61.201 21.9867 61.393 21.816C61.6063 21.6453 61.8303 21.3253 62.065 20.856C62.385 20.2373 62.6837 19.4373 62.961 18.456C63.0037 18.264 63.089 18.168 63.217 18.168C63.3237 18.168 63.377 18.296 63.377 18.552V18.68C63.3343 19.2347 63.185 19.864 62.929 20.568C62.673 21.272 62.3103 21.88 61.841 22.392C61.393 22.904 60.849 23.16 60.209 23.16ZM72.0443 23.16C71.3829 23.16 70.8496 22.9573 70.4443 22.552C70.0389 22.1253 69.7189 21.592 69.4843 20.952C69.2709 20.2907 69.1216 19.6293 69.0363 18.968C68.9509 18.2853 68.9083 17.688 68.9083 17.176C68.6523 18.136 68.3216 19.0747 67.9163 19.992C67.5323 20.9093 67.1056 21.6667 66.6363 22.264C66.1669 22.84 65.6549 23.128 65.1003 23.128H65.0683C64.5563 23.128 64.1296 22.8933 63.7883 22.424C63.4469 21.9333 63.1909 21.2933 63.0203 20.504C62.8496 19.7147 62.7643 18.8613 62.7643 17.944V17.624C62.7643 16.7707 62.8389 15.832 62.9883 14.808C63.1376 13.7627 63.4043 12.7707 63.7883 11.832C64.1723 10.8933 64.6949 10.1253 65.3563 9.528C66.0389 8.90933 66.9029 8.6 67.9483 8.6C68.3536 8.6 68.7163 8.696 69.0363 8.888C69.3776 9.05867 69.6229 9.31467 69.7723 9.656C69.9216 9.48533 70.1243 9.34667 70.3802 9.24C70.6363 9.13333 70.9456 9.08 71.3083 9.08C71.4363 9.08 71.5749 9.09067 71.7243 9.112C71.8949 9.13333 72.0656 9.16533 72.2363 9.208C72.1083 9.69867 71.9589 10.3707 71.7883 11.224C71.6176 12.0773 71.4683 13.016 71.3403 14.04C71.2336 15.0427 71.1803 16.024 71.1803 16.984V17.112C71.1803 17.5173 71.2016 17.9973 71.2443 18.552C71.2869 19.1067 71.3616 19.6507 71.4683 20.184C71.5749 20.7173 71.7243 21.1653 71.9163 21.528C72.1083 21.8907 72.3536 22.072 72.6523 22.072H72.6843C72.8549 22.072 73.0363 21.9867 73.2283 21.816C73.4416 21.6453 73.6656 21.3253 73.9003 20.856C74.2203 20.2373 74.5189 19.4373 74.7963 18.456C74.8389 18.264 74.9243 18.168 75.0523 18.168C75.1589 18.168 75.2123 18.296 75.2123 18.552V18.68C75.1696 19.2347 75.0203 19.864 74.7643 20.568C74.5083 21.272 74.1456 21.88 73.6763 22.392C73.2283 22.904 72.6843 23.16 72.0443 23.16ZM66.1883 20.504C66.5296 20.504 66.8389 20.2587 67.1163 19.768C67.4149 19.2773 67.6816 18.68 67.9163 17.976C68.1509 17.272 68.3536 16.5893 68.5243 15.928C68.7803 14.9467 68.9509 13.9547 69.0363 12.952C69.1216 11.928 69.3029 10.9253 69.5803 9.944C69.3243 9.66667 69.0363 9.528 68.7163 9.528C68.2469 9.528 67.7669 9.76267 67.2763 10.232C66.7856 10.7013 66.4016 11.2347 66.1243 11.832C65.7829 12.5787 65.5269 13.4533 65.3563 14.456C65.2069 15.4587 65.1323 16.4187 65.1323 17.336C65.1323 17.5707 65.1323 17.8053 65.1323 18.04C65.1536 18.2747 65.1749 18.4987 65.1963 18.712C65.2389 19.352 65.3563 19.8107 65.5483 20.088C65.7616 20.3653 65.9749 20.504 66.1883 20.504ZM73.968 34.008C73.2213 34.008 72.6987 33.6453 72.4 32.92C72.08 32.1947 71.92 31.2987 71.92 30.232C71.92 29.784 71.9413 29.304 71.984 28.792C72.0267 28.3013 72.0907 27.8107 72.176 27.32C72.2827 26.6373 72.432 25.9653 72.624 25.304C72.816 24.6427 73.0187 24.0133 73.232 23.416C73.5307 22.5627 73.8613 21.7627 74.224 21.016C74.608 20.248 74.8 19.4053 74.8 18.488V18.36C74.8 17.1013 74.7467 15.928 74.64 14.84C74.5547 13.752 74.4373 12.8133 74.288 12.024C74.16 11.2347 74.032 10.6587 73.904 10.296C74.3307 10.168 74.6933 10.0187 74.992 9.848C75.2907 9.67733 75.568 9.58133 75.824 9.56H75.984C76.3893 9.56 76.6453 9.77333 76.752 10.2C76.8587 10.6053 76.9227 11.096 76.944 11.672C76.9653 12.056 76.976 12.5573 76.976 13.176C76.976 13.7947 76.9867 14.4773 77.008 15.224C77.3067 14.1573 77.6587 13.1227 78.064 12.12C78.4693 11.1173 78.9173 10.296 79.408 9.656C79.8987 8.99467 80.4 8.664 80.912 8.664C81.552 8.664 82.0427 8.888 82.384 9.336C82.7467 9.784 83.0027 10.3493 83.152 11.032C83.3227 11.6933 83.4187 12.3653 83.44 13.048C83.4827 13.7093 83.504 14.264 83.504 14.712C83.504 15.8213 83.3547 16.984 83.056 18.2C82.7787 19.416 82.32 20.4507 81.68 21.304H81.904C82.672 21.304 83.4293 20.952 84.176 20.248C84.944 19.5227 85.5947 18.4347 86.128 16.984C86.2133 16.7707 86.3093 16.664 86.416 16.664C86.5653 16.664 86.64 16.7813 86.64 17.016C86.64 17.1013 86.6293 17.1653 86.608 17.208C86.032 18.872 85.3173 20.0773 84.464 20.824C83.632 21.5707 82.8107 21.944 82 21.944C81.872 21.944 81.744 21.9333 81.616 21.912C81.488 21.8693 81.36 21.8373 81.232 21.816C80.8907 22.1787 80.496 22.4667 80.048 22.68C79.6 22.8933 79.0987 23 78.544 23C77.9253 23 77.456 22.872 77.136 22.616V24.024C77.136 24.6853 77.136 25.2827 77.136 25.816C77.136 26.3707 77.1253 26.8187 77.104 27.16C77.04 28.504 76.9227 29.6027 76.752 30.456C76.5387 31.5013 76.2187 32.3547 75.792 33.016C75.3653 33.6773 74.7893 34.008 74.064 34.008H73.968ZM78.064 22.136C78.4053 22.136 78.7147 22.0293 78.992 21.816C79.4827 21.432 79.8773 20.8133 80.176 19.96C80.496 19.0853 80.72 18.2213 80.848 17.368C80.912 17.0053 80.9547 16.568 80.976 16.056C81.0187 15.544 81.04 15.0213 81.04 14.488C81.04 13.5707 80.9653 12.7493 80.816 12.024C80.6667 11.2773 80.3787 10.904 79.952 10.904C79.696 10.904 79.4293 11.128 79.152 11.576C78.896 12.024 78.64 12.6107 78.384 13.336C78.128 14.0613 77.8827 14.84 77.648 15.672C77.4347 16.4827 77.2427 17.2613 77.072 18.008C77.0933 18.6267 77.104 19.2453 77.104 19.864C77.104 20.4827 77.104 21.1013 77.104 21.72C77.3813 21.9973 77.7013 22.136 78.064 22.136ZM73.84 32.984C73.968 32.984 74.096 32.888 74.224 32.696C74.3733 32.5253 74.5013 32.2373 74.608 31.832C74.7573 31.2773 74.8533 30.5627 74.896 29.688C74.96 28.8133 74.992 27.896 74.992 26.936C74.992 25.8907 74.9707 24.8667 74.928 23.864C74.8853 22.8827 74.8427 22.0613 74.8 21.4C74.608 21.848 74.3947 22.3813 74.16 23C73.9253 23.6187 73.7227 24.2693 73.552 24.952C73.3387 25.72 73.168 26.4987 73.04 27.288C72.8907 28.0987 72.816 28.9093 72.816 29.72C72.816 30.4027 72.88 31.0853 73.008 31.768C73.072 32.0667 73.1893 32.344 73.36 32.6C73.5093 32.856 73.6693 32.984 73.84 32.984Z" fill="#333333"/>
</svg>
