<svg width="78" height="34" viewBox="0 0 78 34" fill="none" xmlns="http://www.w3.org/2000/svg">
<path d="M11.988 5.476L12.168 4.54C12.072 3.244 11.196 2.596 9.54 2.596C8.58 2.596 7.74 2.944 7.02 3.64C6.324 4.312 5.976 5.032 5.976 5.8C5.976 6.544 6.288 7.204 6.912 7.78C7.56 8.332 8.328 8.836 9.216 9.292C10.128 9.724 11.028 10.204 11.916 10.732C12.828 11.236 13.596 11.896 14.22 12.712C14.868 13.528 15.192 14.452 15.192 15.484C15.192 17.62 14.352 19.3 12.672 20.524C10.992 21.748 9.18 22.36 7.236 22.36C5.292 22.36 3.672 22.012 2.376 21.316C1.08 20.596 0.432 19.516 0.432 18.076C0.432 17.308 0.696 16.612 1.224 15.988C1.752 15.364 2.508 15.052 3.492 15.052C3.876 15.052 4.224 15.16 4.536 15.376C4.848 15.592 5.04 15.88 5.112 16.24C5.112 16.6 4.896 16.78 4.464 16.78C3.648 16.78 3.24 17.128 3.24 17.824C3.264 18.616 3.636 19.336 4.356 19.984C5.1 20.632 6.132 20.956 7.452 20.956C8.796 20.956 9.936 20.5 10.872 19.588C11.832 18.676 12.312 17.572 12.312 16.276C12.312 15.412 11.988 14.632 11.34 13.936C10.692 13.24 9.912 12.652 9 12.172C8.088 11.668 7.164 11.164 6.228 10.66C5.316 10.156 4.536 9.544 3.888 8.824C3.24 8.104 2.916 7.288 2.916 6.376C2.916 4.768 3.6 3.484 4.968 2.524C6.36 1.564 7.932 1.084 9.684 1.084C10.86 1.084 11.928 1.324 12.888 1.804C13.848 2.284 14.34 3.016 14.364 4C14.364 4.576 14.22 5.056 13.932 5.44C13.644 5.824 13.248 6.016 12.744 6.016C12.264 6.016 12.012 5.836 11.988 5.476ZM18.3426 10.804C18.6066 10.492 19.0266 10.096 19.6026 9.616C20.1786 9.112 20.6346 8.86 20.9706 8.86C21.3066 8.86 21.4746 9.34 21.4746 10.3C21.4746 11.236 21.2226 12.16 20.7186 13.072C20.6226 13.504 20.5506 14.128 20.5026 14.944C21.1986 13.048 21.8946 11.62 22.5906 10.66C23.2866 9.7 24.1266 9.22 25.1106 9.22C26.1186 9.22 26.9946 9.676 27.7386 10.588C28.4826 11.476 28.8546 12.892 28.8546 14.836C28.8546 16.756 28.3026 18.46 27.1986 19.948C26.1186 21.436 24.6906 22.18 22.9146 22.18C22.0026 22.18 21.0786 21.844 20.1426 21.172C20.1426 25.756 19.8786 29.248 19.3506 31.648C19.3026 31.864 18.9786 32.224 18.3786 32.728C17.8026 33.256 17.3826 33.52 17.1186 33.52C16.8306 33.52 16.6266 33.328 16.5066 32.944C16.3866 32.56 16.3266 32.2 16.3266 31.864C16.3266 29.392 16.8306 26.212 17.8386 22.324C18.0066 20.068 18.1146 17.596 18.1626 14.908C18.2346 12.22 18.2946 10.852 18.3426 10.804ZM23.1306 20.884C23.8266 20.884 24.5466 20.404 25.2906 19.444C26.0346 18.46 26.4066 17.26 26.4066 15.844C26.4066 14.404 26.2026 13.264 25.7946 12.424C25.4106 11.56 24.8826 11.128 24.2106 11.128C23.0586 11.128 21.7506 13.516 20.2866 18.292C20.2386 18.964 20.2146 19.492 20.2146 19.876C20.8866 20.548 21.8586 20.884 23.1306 20.884ZM34.5912 22.18C33.2472 22.18 32.1792 21.676 31.3872 20.668C30.5952 19.636 30.1992 18.472 30.1992 17.176C30.1992 14.56 30.7512 12.58 31.8552 11.236C32.9592 9.892 34.3872 9.22 36.1392 9.22C36.9552 9.22 37.6272 9.448 38.1552 9.904C38.6832 10.336 38.9472 10.936 38.9472 11.704C38.9472 13.144 38.3352 14.356 37.1112 15.34C35.9112 16.3 34.4352 16.804 32.6832 16.852C32.7792 17.788 33.0912 18.604 33.6192 19.3C34.1712 19.972 34.8072 20.308 35.5272 20.308C36.2472 20.308 36.8952 20.14 37.4712 19.804C38.0472 19.468 38.5752 18.988 39.0552 18.364C40.0632 17.044 40.9272 15.544 41.6472 13.864C41.8392 13.432 41.9832 13.12 42.0792 12.928C42.1992 12.736 42.3192 12.64 42.4392 12.64C42.5832 12.64 42.6552 12.736 42.6552 12.928C42.6552 14.128 41.9232 15.928 40.4592 18.328C38.8752 20.896 36.9192 22.18 34.5912 22.18ZM32.6832 15.988C34.0992 15.748 35.1312 15.292 35.7792 14.62C36.4512 13.948 36.7872 13.072 36.7872 11.992C36.7872 10.912 36.4392 10.372 35.7432 10.372C34.9032 10.372 34.1952 10.96 33.6192 12.136C33.0432 13.288 32.7312 14.572 32.6832 15.988ZM45.1381 22.18C43.7941 22.18 42.7261 21.676 41.9341 20.668C41.1421 19.636 40.7461 18.472 40.7461 17.176C40.7461 14.56 41.2981 12.58 42.4021 11.236C43.5061 9.892 44.9341 9.22 46.6861 9.22C47.5021 9.22 48.1741 9.448 48.7021 9.904C49.2301 10.336 49.4941 10.936 49.4941 11.704C49.4941 13.144 48.8821 14.356 47.6581 15.34C46.4581 16.3 44.9821 16.804 43.2301 16.852C43.3261 17.788 43.6381 18.604 44.1661 19.3C44.7181 19.972 45.3541 20.308 46.0741 20.308C46.7941 20.308 47.4421 20.14 48.0181 19.804C48.5941 19.468 49.1221 18.988 49.6021 18.364C50.6101 17.044 51.4741 15.544 52.1941 13.864C52.3861 13.432 52.5301 13.12 52.6261 12.928C52.7461 12.736 52.8661 12.64 52.9861 12.64C53.1301 12.64 53.2021 12.736 53.2021 12.928C53.2021 14.128 52.4701 15.928 51.0061 18.328C49.4221 20.896 47.4661 22.18 45.1381 22.18ZM43.2301 15.988C44.6461 15.748 45.6781 15.292 46.3261 14.62C46.9981 13.948 47.3341 13.072 47.3341 11.992C47.3341 10.912 46.9861 10.372 46.2901 10.372C45.4501 10.372 44.7421 10.96 44.1661 12.136C43.5901 13.288 43.2781 14.572 43.2301 15.988ZM57.737 13.252L58.025 11.416C58.025 11.152 57.941 10.912 57.773 10.696C57.605 10.48 57.389 10.372 57.125 10.372C56.237 10.372 55.469 11.044 54.821 12.388C54.173 13.708 53.849 14.98 53.849 16.204C53.849 17.428 54.101 18.424 54.605 19.192C55.109 19.936 55.721 20.308 56.441 20.308C57.185 20.308 57.845 20.14 58.421 19.804C58.997 19.468 59.525 18.988 60.005 18.364C61.013 17.044 61.877 15.544 62.597 13.864C62.789 13.432 62.933 13.12 63.029 12.928C63.149 12.736 63.269 12.64 63.389 12.64C63.533 12.64 63.605 12.736 63.605 12.928C63.605 13.72 63.329 14.668 62.777 15.772C62.225 16.876 61.757 17.728 61.373 18.328C61.013 18.904 60.545 19.516 59.969 20.164C58.769 21.508 57.269 22.18 55.469 22.18C54.101 22.18 53.057 21.7 52.337 20.74C51.641 19.756 51.293 18.712 51.293 17.608C51.293 14.872 51.881 12.796 53.057 11.38C54.257 9.94 55.769 9.22 57.593 9.22C58.361 9.22 58.961 9.424 59.393 9.832C59.849 10.216 60.077 10.66 60.077 11.164C60.077 12.1 59.909 12.796 59.573 13.252C59.237 13.708 58.829 13.936 58.349 13.936C57.941 13.936 57.737 13.708 57.737 13.252ZM64.5818 20.056L64.6178 21.172C64.6178 21.844 64.4258 22.18 64.0418 22.18C63.4658 22.18 62.9138 22.108 62.3858 21.964C61.8578 21.796 61.5938 21.58 61.5938 21.316C61.5938 21.028 61.6538 20.08 61.7738 18.472C61.9178 16.84 61.9898 15.616 61.9898 14.8V12.712C61.9898 6.568 63.0818 2.656 65.2658 0.975998C65.7698 0.591999 66.2858 0.399999 66.8138 0.399999C67.0538 0.399999 67.2938 0.663999 67.5338 1.192C67.7738 1.72 67.8938 2.404 67.8938 3.244C67.8938 5.308 67.5458 7.24 66.8498 9.04C66.1538 10.84 65.4458 12.22 64.7258 13.18C64.7018 13.78 64.6898 14.716 64.6898 15.988C64.7858 15.844 65.2898 15.028 66.2018 13.54C67.1138 12.052 67.8818 10.96 68.5058 10.264C69.1538 9.568 69.7298 9.22 70.2338 9.22C70.7378 9.22 71.1818 9.388 71.5658 9.724C71.9738 10.06 72.1777 10.48 72.1777 10.984C72.1777 12.04 72.0578 13.6 71.8178 15.664C71.6018 17.704 71.4938 19 71.4938 19.552C71.4938 20.08 71.5658 20.344 71.7098 20.344C72.1178 20.32 72.6818 19.816 73.4018 18.832C74.1218 17.824 74.8298 16.54 75.5258 14.98C76.2458 13.42 76.6778 12.64 76.8218 12.64C76.9898 12.64 77.0738 12.736 77.0738 12.928C77.0738 13.6 76.7258 14.668 76.0298 16.132C74.1338 20.164 72.5378 22.18 71.2418 22.18C70.3058 22.18 69.5978 21.988 69.1178 21.604C68.9498 21.436 68.8658 21.004 68.8658 20.308C68.8658 19.588 68.9258 18.436 69.0458 16.852C69.1898 15.244 69.2618 14.044 69.2618 13.252C69.2618 12.46 69.1178 12.064 68.8298 12.064C68.5658 12.064 67.8458 12.892 66.6698 14.548C65.4938 16.18 64.8698 17.224 64.7978 17.68C64.6538 18.52 64.5818 19.312 64.5818 20.056ZM66.9218 4.036C66.9218 3.028 66.7898 2.524 66.5258 2.524C66.0938 2.524 65.6738 3.856 65.2658 6.52C65.0498 7.936 64.8938 9.58 64.7978 11.452C66.2138 8.5 66.9218 6.028 66.9218 4.036Z" fill="#020202"/>
</svg>
