<svg width="135" height="39" viewBox="0 0 135 39" fill="none" xmlns="http://www.w3.org/2000/svg">
<path d="M13.2584 10.3102H17.1667C17.1 14.2018 16.3334 14.8435 13.9417 16.2602C13.6667 16.4268 13.575 16.7768 13.7417 17.0602C13.9084 17.3352 14.2584 17.4268 14.5417 17.2602C17.3584 15.5935 18.3417 14.5768 18.3417 9.72682V5.23516C18.3417 3.81016 17.1834 2.66016 15.7667 2.66016H13.2667C11.8 2.66016 10.6917 3.76849 10.6917 5.23516V7.73516C10.6834 9.20182 11.7917 10.3102 13.2584 10.3102Z" fill="#3D4754"/>
<path d="M4.24175 10.3102H8.15008C8.08341 14.2018 7.31675 14.8435 4.92508 16.2602C4.65008 16.4268 4.55841 16.7768 4.72508 17.0602C4.89175 17.3352 5.24175 17.4268 5.52508 17.2602C8.34175 15.5935 9.32508 14.5768 9.32508 9.72682V5.23516C9.32508 3.81016 8.16675 2.66016 6.75008 2.66016H4.25008C2.77508 2.66016 1.66675 3.76849 1.66675 5.23516V7.73516C1.66675 9.20182 2.77508 10.3102 4.24175 10.3102Z" fill="#3D4754"/>
<path d="M35.4592 14.796L32.4353 15.748C32.2393 14.516 31.2033 12.696 28.5433 12.696C26.5273 12.696 25.1273 14.04 25.1273 15.552C25.1273 16.812 25.9113 17.764 27.4513 18.1L30.3073 18.688C33.8073 19.388 35.6833 21.6 35.6833 24.4C35.6833 27.48 33.1913 30.42 28.6553 30.42C23.6153 30.42 21.2913 27.172 20.9833 24.316L24.1193 23.42C24.3153 25.492 25.7993 27.396 28.6553 27.396C31.0353 27.396 32.2673 26.192 32.2673 24.652C32.2673 23.364 31.3153 22.328 29.6073 21.964L26.8073 21.376C23.7833 20.76 21.7673 18.772 21.7673 15.804C21.7673 12.472 24.8193 9.728 28.5153 9.728C33.1913 9.728 35.0113 12.584 35.4592 14.796ZM41.4841 35.32H38.2641V16.364H41.4001V18.212C42.0721 17.036 43.6401 16.056 45.7401 16.056C49.7721 16.056 52.0401 19.136 52.0401 23.168C52.0401 27.256 49.5481 30.336 45.6281 30.336C43.6681 30.336 42.1841 29.496 41.4841 28.46V35.32ZM48.7921 23.168C48.7921 20.62 47.3081 18.94 45.1241 18.94C42.9961 18.94 41.4561 20.62 41.4561 23.168C41.4561 25.772 42.9961 27.452 45.1241 27.452C47.2801 27.452 48.7921 25.772 48.7921 23.168ZM57.4305 21.684H64.1225C64.0665 20.088 63.0025 18.66 60.7625 18.66C58.7185 18.66 57.5425 20.228 57.4305 21.684ZM64.4865 25.24L67.2305 26.108C66.5025 28.488 64.3465 30.42 61.0705 30.42C57.3745 30.42 54.0985 27.732 54.0985 23.112C54.0985 18.8 57.2905 15.944 60.7345 15.944C64.9345 15.944 67.3985 18.716 67.3985 23.028C67.3985 23.56 67.3425 24.008 67.3145 24.064H57.3465C57.4305 26.136 59.0545 27.62 61.0705 27.62C63.0305 27.62 64.0385 26.584 64.4865 25.24ZM72.7703 21.684H79.4623C79.4063 20.088 78.3423 18.66 76.1023 18.66C74.0583 18.66 72.8823 20.228 72.7703 21.684ZM79.8263 25.24L82.5703 26.108C81.8423 28.488 79.6863 30.42 76.4103 30.42C72.7143 30.42 69.4383 27.732 69.4383 23.112C69.4383 18.8 72.6303 15.944 76.0743 15.944C80.2743 15.944 82.7383 18.716 82.7383 23.028C82.7383 23.56 82.6823 24.008 82.6543 24.064H72.6863C72.7703 26.136 74.3943 27.62 76.4103 27.62C78.3703 27.62 79.3783 26.584 79.8263 25.24ZM91.7782 18.94C89.7902 18.94 88.0262 20.424 88.0262 23.168C88.0262 25.912 89.7902 27.452 91.8342 27.452C93.9622 27.452 94.9422 25.968 95.2502 24.932L98.1062 25.968C97.4622 28.096 95.4182 30.42 91.8342 30.42C87.8302 30.42 84.7782 27.312 84.7782 23.168C84.7782 18.968 87.8302 15.944 91.7502 15.944C95.4182 15.944 97.4342 18.24 97.9942 20.424L95.0822 21.488C94.7742 20.284 93.8502 18.94 91.7782 18.94ZM104.239 21.992V30H100.991V9.728H104.239V17.68C105.163 16.476 106.703 15.972 108.131 15.972C111.491 15.972 113.115 18.38 113.115 21.376V30H109.867V21.936C109.867 20.256 109.111 18.912 107.067 18.912C105.275 18.912 104.295 20.256 104.239 21.992Z" fill="#333333"/>
<path d="M128.258 10.3101H132.167C132.1 14.2018 131.333 14.8435 128.942 16.2602C128.667 16.4268 128.575 16.7768 128.742 17.0601C128.908 17.3351 129.258 17.4268 129.542 17.2602C132.358 15.5935 133.342 14.5768 133.342 9.72681V5.23518C133.342 3.81018 132.183 2.66016 130.767 2.66016H128.267C126.8 2.66016 125.692 3.76851 125.692 5.23518V7.73518C125.683 9.20185 126.792 10.3101 128.258 10.3101Z" fill="#3D4754"/>
<path opacity="0.4" d="M119.242 10.3101H123.15C123.083 14.2018 122.317 14.8435 119.925 16.2602C119.65 16.4268 119.558 16.7768 119.725 17.0601C119.892 17.3351 120.242 17.4268 120.525 17.2602C123.342 15.5935 124.325 14.5768 124.325 9.72681V5.23518C124.325 3.81018 123.167 2.66016 121.75 2.66016H119.25C117.783 2.66016 116.675 3.76851 116.675 5.23518V7.73518C116.667 9.20185 117.775 10.3101 119.242 10.3101Z" fill="#3D4754"/>
</svg>
